<svg width="24" height="24" viewBox="0 0 24 24" fill="none" xmlns="http://www.w3.org/2000/svg">
<path d="M12 23C5.92469 23 1 18.0753 1 12C1 5.92469 5.92469 1 12 1C18.0753 1 23 5.92469 23 12C23 18.0753 18.0753 23 12 23ZM17.5677 10.7779H11.3213C11.1772 10.7779 11.039 10.8352 10.9371 10.9371C10.8352 11.039 10.7779 11.1772 10.7779 11.3213L10.7773 12.6793C10.7773 12.979 11.0204 13.2227 11.3202 13.2227H15.1234C15.4238 13.2227 15.6668 13.4658 15.6668 13.7655V14.0372C15.6668 14.4694 15.4952 14.8839 15.1895 15.1895C14.8839 15.4952 14.4694 15.6668 14.0372 15.6668H8.876C8.73198 15.6667 8.5939 15.6094 8.49212 15.5075C8.39033 15.4056 8.33315 15.2675 8.33315 15.1234V9.96335C8.33315 9.53123 8.50477 9.11681 8.81027 8.8112C9.11577 8.5056 9.53014 8.33384 9.96225 8.33369H17.5666C17.7106 8.33354 17.8486 8.27623 17.9504 8.17434C18.0522 8.07245 18.1094 7.93433 18.1094 7.79031L18.1111 6.43235C18.1111 6.28832 18.0539 6.15018 17.9521 6.04829C17.8503 5.9464 17.7122 5.88908 17.5682 5.88894H9.96225C9.42722 5.88894 8.89742 5.99433 8.40312 6.1991C7.90882 6.40386 7.4597 6.70399 7.0814 7.08234C6.7031 7.46069 6.40303 7.90985 6.19833 8.40418C5.99363 8.89851 5.88831 9.42831 5.88838 9.96335V17.5677C5.88838 17.868 6.1315 18.1111 6.43181 18.1111H14.4442C15.4166 18.1111 16.3491 17.7248 17.0367 17.0372C17.7242 16.3497 18.1105 15.4171 18.1105 14.4448V11.3208C18.1104 11.1767 18.053 11.0387 17.9511 10.9369C17.8493 10.8351 17.7111 10.7779 17.5671 10.7779H17.5677Z" fill="#C71D23"/>
</svg>
