<svg width="24" height="24" viewBox="0 0 24 24" fill="none" xmlns="http://www.w3.org/2000/svg">
<path d="M4.22222 22C3.61111 22 3.08778 21.7822 2.65222 21.3467C2.21667 20.9111 1.99926 20.3881 2 19.7778V4.22222C2 3.61111 2.21778 3.08778 2.65334 2.65222C3.08889 2.21667 3.61185 1.99926 4.22222 2H16.6389C16.9352 2 17.2178 2.05556 17.4867 2.16667C17.7556 2.27778 17.9915 2.43519 18.1944 2.63889L21.3611 5.80556C21.5648 6.00926 21.7222 6.24556 21.8333 6.51445C21.9444 6.78333 22 7.06556 22 7.36111V19.7778C22 20.3889 21.7822 20.9122 21.3467 21.3478C20.9111 21.7833 20.3881 22.0007 19.7778 22H4.22222ZM12 18.6667C12.9259 18.6667 13.713 18.3426 14.3611 17.6944C15.0093 17.0463 15.3333 16.2593 15.3333 15.3333C15.3333 14.4074 15.0093 13.6204 14.3611 12.9722C13.713 12.3241 12.9259 12 12 12C11.0741 12 10.287 12.3241 9.63889 12.9722C8.99074 13.6204 8.66667 14.4074 8.66667 15.3333C8.66667 16.2593 8.99074 17.0463 9.63889 17.6944C10.287 18.3426 11.0741 18.6667 12 18.6667ZM6.44445 9.77778H14.2222C14.537 9.77778 14.8011 9.67111 15.0144 9.45778C15.2278 9.24445 15.3341 8.98074 15.3333 8.66667V6.44445C15.3333 6.12963 15.2267 5.86556 15.0133 5.65222C14.8 5.43889 14.5363 5.33259 14.2222 5.33333H6.44445C6.12963 5.33333 5.86556 5.44 5.65222 5.65333C5.43889 5.86667 5.33259 6.13037 5.33333 6.44445V8.66667C5.33333 8.98148 5.44 9.24556 5.65333 9.45889C5.86667 9.67222 6.13037 9.77852 6.44445 9.77778Z" fill="#C4C4C4"/>
</svg>
