<svg width="24" height="24" viewBox="0 0 24 24" fill="none" xmlns="http://www.w3.org/2000/svg">
<path fill-rule="evenodd" clip-rule="evenodd" d="M4.22183 4.22182C6.21136 2.23232 8.96273 1 12 1C15.0373 1 17.7886 2.23231 19.7782 4.22182C21.7677 6.21135 23 8.96273 23 12C23 15.0373 21.7677 17.7886 19.7782 19.7782C17.7886 21.7677 15.0373 23 12 23C8.96273 23 6.21136 21.7677 4.22183 19.7782C2.23232 17.7886 1 15.0373 1 12C1 8.96273 2.23233 6.21135 4.22183 4.22182ZM17.7071 9.70711C18.0976 9.31658 18.0976 8.68342 17.7071 8.29289C17.3166 7.90237 16.6834 7.90237 16.2929 8.29289L11 13.5858L8.70711 11.2929C8.31658 10.9024 7.68342 10.9024 7.29289 11.2929C6.90237 11.6834 6.90237 12.3166 7.29289 12.7071L10.2929 15.7071C10.6834 16.0976 11.3166 16.0976 11.7071 15.7071L17.7071 9.70711Z" fill="#C4C4C4"/>
</svg>
