<svg width="24" height="24" viewBox="0 0 24 24" fill="none" xmlns="http://www.w3.org/2000/svg">
<path fill-rule="evenodd" clip-rule="evenodd" d="M6.86311 2.57457C6.69363 2.21406 6.32635 1.98852 5.92817 2.00045C5.52999 2.01238 5.17686 2.25951 5.02928 2.62952L2.07143 10.0451C1.86681 10.5581 2.1168 11.1398 2.62978 11.3444C3.14277 11.5491 3.72449 11.2991 3.9291 10.7861L4.53304 9.27197H7.80153L8.53914 10.841C8.77409 11.3408 9.36974 11.5556 9.86956 11.3206C10.3694 11.0856 10.5841 10.49 10.3491 9.99018L6.86311 2.57457ZM6.86135 7.27197L6.03334 5.51059L5.33078 7.27197H6.86135ZM11.1194 5.92542C11.1194 5.37313 11.5671 4.92542 12.1194 4.92542H16.1194C17.7762 4.92542 19.1194 6.26856 19.1194 7.92542V10.5C19.1194 11.0523 18.6717 11.5 18.1194 11.5C17.5671 11.5 17.1194 11.0523 17.1194 10.5V7.92542C17.1194 7.37313 16.6717 6.92542 16.1194 6.92542H12.1194C11.5671 6.92542 11.1194 6.4777 11.1194 5.92542ZM6.11938 12.3894C6.67167 12.3894 7.11938 12.8371 7.11938 13.3894V15.9254C7.11938 16.4777 7.5671 16.9254 8.11938 16.9254H13.5002C14.0525 16.9254 14.5002 17.3731 14.5002 17.9254C14.5002 18.4777 14.0525 18.9254 13.5002 18.9254H8.11938C6.46253 18.9254 5.11938 17.5823 5.11938 15.9254V13.3894C5.11938 12.8371 5.5671 12.3894 6.11938 12.3894ZM20.0002 16V19C20.0002 19.5523 19.5525 20 19.0002 20C18.448 20 18.0002 19.5523 18.0002 19V16C18.0002 15.4477 18.448 15 19.0002 15C19.5525 15 20.0002 15.4477 20.0002 16ZM16.0002 16C16.0002 14.3431 17.3434 13 19.0002 13C20.6571 13 22.0002 14.3431 22.0002 16V19C22.0002 20.6569 20.6571 22 19.0002 22C17.3434 22 16.0002 20.6569 16.0002 19V16Z" fill="#C4C4C4"/>
</svg>
