<svg width="24" height="24" viewBox="0 0 24 24" fill="none" xmlns="http://www.w3.org/2000/svg">
<path fill-rule="evenodd" clip-rule="evenodd" d="M12 23C18.0751 23 23 18.0751 23 12C23 5.92487 18.0751 1 12 1C5.92487 1 1 5.92487 1 12C1 18.0751 5.92487 23 12 23ZM12.9445 5.30307C12.9445 4.77834 12.5191 4.35297 11.9944 4.35297C11.4697 4.35297 11.0443 4.77834 11.0443 5.30307V11.929C11.0443 12.4537 11.4697 12.8791 11.9944 12.8791C12.5191 12.8791 12.9445 12.4537 12.9445 11.929V5.30307ZM9.54301 7.92959C9.99182 7.65773 10.1353 7.07351 9.86341 6.6247C9.59155 6.17589 9.00733 6.03244 8.55852 6.3043C6.63693 7.46826 5.3493 9.58148 5.3493 11.9963C5.3493 15.6694 8.32694 18.6471 12 18.6471C15.6731 18.6471 18.6508 15.6694 18.6508 11.9963C18.6508 9.58148 17.3631 7.46826 15.4416 6.3043C14.9927 6.03244 14.4085 6.17589 14.1367 6.6247C13.8648 7.07351 14.0083 7.65773 14.4571 7.92959C15.8339 8.76357 16.7506 10.2734 16.7506 11.9963C16.7506 14.62 14.6237 16.7469 12 16.7469C9.3764 16.7469 7.24951 14.62 7.24951 11.9963C7.24951 10.2734 8.16619 8.76357 9.54301 7.92959Z" fill="#C4C4C4"/>
</svg>
