<svg width="24" height="24" viewBox="0 0 24 24" fill="none" xmlns="http://www.w3.org/2000/svg">
<path d="M2.03639 19C1.76421 19 1.52343 18.9071 1.31406 18.7214C1.10469 18.5357 1 18.2881 1 17.9786C1 17.8754 1.02094 17.7413 1.06281 17.5762L4.98853 7.08333C5.1351 6.73254 5.35494 6.46429 5.64806 6.27857C5.94118 6.09286 6.25524 6 6.59023 6C6.92523 6 7.23928 6.09286 7.5324 6.27857C7.84646 6.46429 8.07677 6.73254 8.22333 7.08333L12.4003 17.5762C12.4422 17.7413 12.4631 17.8754 12.4631 17.9786C12.4631 18.2881 12.3584 18.5357 12.1491 18.7214C11.9397 18.9071 11.6989 19 11.4267 19C11.2383 19 11.0394 18.9484 10.83 18.8452C10.6416 18.7627 10.495 18.6183 10.3903 18.4119L9.35394 15.6881C9.333 15.5643 9.24925 15.5024 9.10269 15.5024H4.29761C4.15105 15.5024 4.05683 15.5643 4.01496 15.6881L3.07278 18.4119C2.9681 18.6183 2.81107 18.7627 2.6017 18.8452C2.41326 18.9484 2.22483 19 2.03639 19ZM5.23978 13.6452H8.0663C8.19193 13.6452 8.28614 13.604 8.34895 13.5214C8.4327 13.4183 8.45364 13.2944 8.41177 13.15L6.90429 8.90952C6.84148 8.70317 6.74726 8.6 6.62164 8.6C6.47508 8.6 6.37039 8.70317 6.30758 8.90952L4.89432 13.181C4.85244 13.3048 4.86291 13.4183 4.92572 13.5214C5.00947 13.604 5.11416 13.6452 5.23978 13.6452Z" fill="#C4C4C4"/>
<path d="M18.1007 19C17.2004 19 16.3943 18.7937 15.6825 18.381C14.9706 17.9683 14.4157 17.4008 14.0179 16.6786C13.6201 15.9357 13.4212 15.1103 13.4212 14.2024C13.4212 13.3151 13.6201 12.5206 14.0179 11.819C14.4157 11.1175 14.9706 10.5706 15.6825 10.1786C16.3943 9.76587 17.2004 9.55952 18.1007 9.55952C18.6869 9.55952 19.2104 9.6627 19.671 9.86905C20.1316 10.0548 20.5294 10.3024 20.8644 10.6119C20.9063 10.323 21.0319 10.1063 21.2413 9.96191C21.4506 9.79683 21.681 9.71428 21.9322 9.71428C22.2044 9.71428 22.4452 9.80714 22.6545 9.99286C22.8848 10.1579 23 10.4159 23 10.7667V18.0405C23 18.35 22.8848 18.5873 22.6545 18.7524C22.4452 18.9175 22.2044 19 21.9322 19C21.66 19 21.4088 18.9175 21.1785 18.7524C20.9691 18.5873 20.8644 18.35 20.8644 18.0405V17.9167C20.5294 18.2468 20.1316 18.5048 19.671 18.6905C19.2104 18.8968 18.6869 19 18.1007 19ZM18.2891 17.081C19.0847 17.081 19.7129 16.823 20.1735 16.3071C20.6341 15.7706 20.8644 15.069 20.8644 14.2024C20.8644 13.377 20.6341 12.7167 20.1735 12.2214C19.7129 11.7262 19.0847 11.4786 18.2891 11.4786C17.4726 11.4786 16.8131 11.7262 16.3106 12.2214C15.8081 12.7167 15.5568 13.377 15.5568 14.2024C15.5568 15.069 15.8081 15.7706 16.3106 16.3071C16.8131 16.823 17.4726 17.081 18.2891 17.081Z" fill="#C4C4C4"/>
</svg>
