<svg width="24" height="24" viewBox="0 0 24 24" fill="none" xmlns="http://www.w3.org/2000/svg">
<path fill-rule="evenodd" clip-rule="evenodd" d="M16.9935 2C17.5458 1.99881 17.9944 2.44555 17.9956 2.99784L18.0294 18.591L20.239 16.3814C20.6295 15.9908 21.2627 15.9908 21.6532 16.3814C22.0437 16.7719 22.0437 17.405 21.6532 17.7956L17.7417 21.7071C17.5541 21.8946 17.2998 22 17.0346 22C16.7694 22 16.515 21.8946 16.3275 21.7071L12.2929 17.6725C11.9024 17.282 11.9024 16.6488 12.2929 16.2583C12.6834 15.8678 13.3166 15.8678 13.7071 16.2583L16.0293 18.5806L15.9956 3.00216C15.9944 2.44988 16.4412 2.0012 16.9935 2Z" fill="black"/>
<path fill-rule="evenodd" clip-rule="evenodd" d="M2 14C2 13.4477 2.44772 13 3 13H10C10.5523 13 11 13.4477 11 14V21C11 21.5523 10.5523 22 10 22H3C2.44772 22 2 21.5523 2 21V14ZM4 15V20H9V15H4Z" fill="black"/>
<path fill-rule="evenodd" clip-rule="evenodd" d="M2 3C2 2.44772 2.44772 2 3 2H10C10.5523 2 11 2.44772 11 3V10C11 10.5523 10.5523 11 10 11H3C2.44772 11 2 10.5523 2 10V3ZM4.60805 5.9337C4.21045 5.55038 3.5774 5.56194 3.19407 5.95954C2.81075 6.35713 2.82231 6.99019 3.21991 7.37351L5.01967 9.10869C5.41727 9.49201 6.05033 9.48045 6.43365 9.08285L9.55697 5.84327C9.94029 5.44568 9.92873 4.81262 9.53113 4.42929C9.13354 4.04597 8.50048 4.05754 8.11716 4.45513L5.68791 6.97481L4.60805 5.9337Z" fill="black"/>
</svg>
