<svg width="24" height="24" viewBox="0 0 24 24" fill="none" xmlns="http://www.w3.org/2000/svg">
<path fill-rule="evenodd" clip-rule="evenodd" d="M16.9527 22C16.4004 22.0012 15.9517 21.5544 15.9505 21.0022L15.9168 5.409L13.7072 7.61865C13.3166 8.00917 12.6835 8.00917 12.2929 7.61865C11.9024 7.22812 11.9024 6.59496 12.2929 6.20444L16.2045 2.29289C16.392 2.10535 16.6464 2 16.9116 2C17.1768 2 17.4312 2.10535 17.6187 2.29289L21.6533 6.32746C22.0438 6.71799 22.0438 7.35115 21.6533 7.74168C21.2628 8.1322 20.6296 8.1322 20.2391 7.74168L17.9168 5.41945L17.9505 20.9978C17.9517 21.5501 17.505 21.9988 16.9527 22Z" fill="black"/>
<path fill-rule="evenodd" clip-rule="evenodd" d="M2 14C2 13.4477 2.44772 13 3 13H10C10.5523 13 11 13.4477 11 14V21C11 21.5523 10.5523 22 10 22H3C2.44772 22 2 21.5523 2 21V14ZM4 15V20H9V15H4Z" fill="black"/>
<path fill-rule="evenodd" clip-rule="evenodd" d="M2 3C2 2.44772 2.44772 2 3 2H10C10.5523 2 11 2.44772 11 3V10C11 10.5523 10.5523 11 10 11H3C2.44772 11 2 10.5523 2 10V3ZM4.60805 5.9337C4.21045 5.55038 3.5774 5.56194 3.19407 5.95954C2.81075 6.35713 2.82231 6.99019 3.21991 7.37351L5.01967 9.10869C5.41727 9.49201 6.05033 9.48045 6.43365 9.08285L9.55697 5.84327C9.94029 5.44568 9.92873 4.81262 9.53113 4.42929C9.13354 4.04597 8.50048 4.05754 8.11716 4.45513L5.68791 6.97481L4.60805 5.9337Z" fill="black"/>
</svg>
