<svg width="24" height="24" viewBox="0 0 24 24" fill="none" xmlns="http://www.w3.org/2000/svg">
<path fill-rule="evenodd" clip-rule="evenodd" d="M20.5184 4.60072C20.8809 4.23453 20.8809 3.64083 20.5184 3.27464C20.1559 2.90845 19.5681 2.90845 19.2056 3.27464L11.9855 10.5682L4.76551 3.27488C4.40301 2.90869 3.81528 2.90869 3.45277 3.27488C3.09027 3.64107 3.09027 4.23477 3.45277 4.60096L10.6727 11.8943L3.27188 19.3704C2.90937 19.7366 2.90937 20.3303 3.27188 20.6965C3.63438 21.0627 4.22211 21.0627 4.58461 20.6965L11.9855 13.2204L19.3865 20.6967C19.749 21.0629 20.3368 21.0629 20.6993 20.6967C21.0618 20.3305 21.0618 19.7368 20.6993 19.3706L13.2982 11.8943L20.5184 4.60072Z" fill="black"/>
</svg>
