<svg width="24" height="24" viewBox="0 0 24 24" fill="none" xmlns="http://www.w3.org/2000/svg">
<path fill-rule="evenodd" clip-rule="evenodd" d="M3 3C3 1.89543 3.89543 1 5 1H15L21 7V21C21 22.1046 20.1046 23 19 23H5C3.89543 23 3 22.1046 3 21V3ZM14.7664 2L19.7664 7H16.7664C15.6618 7 14.7664 6.10457 14.7664 5V2ZM15.4548 12.061C15.3864 11.7733 15.1293 11.5702 14.8336 11.5702C14.4133 11.5702 14.1077 11.9693 14.2172 12.375L15.2294 16.1255C15.3539 16.5868 15.7722 16.9072 16.25 16.9072C16.7278 16.9072 17.1461 16.5868 17.2706 16.1255L18.2828 12.375C18.3923 11.9693 18.0867 11.5702 17.6664 11.5702C17.3707 11.5702 17.1136 11.7733 17.0452 12.061L16.271 15.3166C16.2687 15.3264 16.26 15.3332 16.25 15.3332C16.24 15.3332 16.2313 15.3264 16.229 15.3166L15.4548 12.061ZM12.927 13.311C12.7074 13.311 12.5426 13.1374 12.3873 12.9738L12.3872 12.9737C12.3649 12.9502 12.3429 12.927 12.3208 12.9045C12.2271 12.8072 12.0843 12.7585 11.8926 12.7585C11.7704 12.7585 11.6703 12.7768 11.5922 12.8133C11.5154 12.848 11.4586 12.8958 11.4217 12.9566C11.3848 13.0174 11.3656 13.0869 11.3642 13.1651C11.3613 13.2293 11.3706 13.2875 11.3919 13.3397C11.4146 13.39 11.4501 13.4361 11.4984 13.4778C11.5467 13.5177 11.6085 13.5542 11.6838 13.5872C11.7591 13.6202 11.8485 13.6498 11.9522 13.6758L12.3102 13.7696C12.5517 13.8322 12.7583 13.9147 12.9302 14.0172C13.1021 14.1197 13.2427 14.2405 13.3521 14.3794C13.4615 14.5167 13.5417 14.6713 13.5929 14.8433C13.6454 15.0153 13.6724 15.2029 13.6738 15.4062C13.6724 15.7571 13.6007 16.0542 13.4586 16.2974C13.3166 16.5407 13.1135 16.7257 12.8493 16.8525C12.5865 16.9793 12.2704 17.0427 11.9011 17.0427C11.5218 17.0427 11.1909 16.9741 10.9082 16.8369C10.627 16.6996 10.4082 16.4885 10.252 16.2036C10.1693 16.0506 10.1085 15.8748 10.0696 15.6763C10.0085 15.3646 10.2756 15.1039 10.5932 15.1039H10.7153C10.9542 15.1039 11.1297 15.3051 11.2427 15.5156C11.3024 15.6268 11.3862 15.7111 11.4941 15.7684C11.6035 15.8257 11.7335 15.8544 11.8841 15.8544C12.0105 15.8544 12.1163 15.8353 12.2015 15.7971C12.2868 15.7589 12.3514 15.7059 12.3954 15.6381C12.4395 15.5704 12.4622 15.4931 12.4636 15.4062C12.4622 15.3245 12.4402 15.2533 12.3975 15.1925C12.3564 15.13 12.2882 15.0744 12.193 15.0257C12.0978 14.9753 11.9693 14.9284 11.8074 14.885L11.3727 14.7703C10.9863 14.6678 10.6816 14.4967 10.4586 14.257C10.237 14.0155 10.127 13.6863 10.1284 13.2693C10.127 12.9305 10.2008 12.6343 10.35 12.3807C10.5005 12.1253 10.7086 11.9264 10.9743 11.7839C11.2413 11.6414 11.5474 11.5702 11.8926 11.5702C12.2449 11.5702 12.5495 11.6423 12.8066 11.7865C13.0637 11.9307 13.2619 12.134 13.4011 12.3963C13.4576 12.5009 13.5028 12.6127 13.5368 12.7315C13.6258 13.0425 13.3512 13.311 13.0277 13.311H12.927ZM8.94853 13.6446C9.29597 13.6446 9.58017 13.3462 9.48437 13.0123C9.45932 12.9249 9.4302 12.8412 9.39702 12.7611C9.29048 12.504 9.14986 12.2877 8.97514 12.1122C8.80043 11.935 8.5973 11.8004 8.36577 11.7083C8.13423 11.6162 7.88068 11.5702 7.60511 11.5702C7.21307 11.5702 6.85795 11.6753 6.53977 11.8855C6.22159 12.094 5.96875 12.4024 5.78125 12.8106C5.59375 13.2172 5.5 13.7175 5.5 14.3117C5.5 14.9024 5.59162 15.4018 5.77486 15.8101C5.95952 16.2184 6.21023 16.5276 6.52699 16.7378C6.84517 16.9481 7.20455 17.0532 7.60511 17.0532C7.92472 17.0532 8.20526 16.9932 8.44673 16.8733C8.68821 16.7535 8.89062 16.5954 9.05398 16.3991C9.21875 16.201 9.34588 15.9856 9.43537 15.7528C9.44243 15.7343 9.44925 15.7158 9.45584 15.6974C9.57494 15.364 9.29337 15.0596 8.93941 15.0566L8.71143 15.0546C8.5278 15.053 8.3811 15.1943 8.30611 15.3619C8.26634 15.4522 8.21449 15.5295 8.15057 15.5938C8.08665 15.6581 8.01136 15.7076 7.92472 15.7424C7.83807 15.7754 7.74006 15.7919 7.63068 15.7919C7.43892 15.7919 7.27486 15.7371 7.13849 15.6277C7.00213 15.5165 6.89773 15.3515 6.82528 15.1326C6.75426 14.9119 6.71875 14.6383 6.71875 14.3117C6.71875 14.0024 6.75355 13.7375 6.82315 13.5169C6.89418 13.2962 6.99787 13.1268 7.13423 13.0087C7.27202 12.8906 7.44034 12.8315 7.6392 12.8315C7.75284 12.8315 7.8544 12.8515 7.94389 12.8914C8.03338 12.9297 8.10938 12.9852 8.17188 13.0582C8.2358 13.1294 8.28551 13.2146 8.32102 13.3136C8.38776 13.4925 8.53729 13.6446 8.72827 13.6446H8.94853Z" fill="#C4C4C4"/>
</svg>
