<svg width="24" height="24" viewBox="0 0 24 24" fill="none" xmlns="http://www.w3.org/2000/svg">
<path fill-rule="evenodd" clip-rule="evenodd" d="M16.9935 2C17.5458 1.99881 17.9944 2.44555 17.9956 2.99784L18.0294 18.591L20.239 16.3814C20.6295 15.9908 21.2627 15.9908 21.6532 16.3814C22.0437 16.7719 22.0437 17.405 21.6532 17.7956L17.7417 21.7071C17.5541 21.8946 17.2998 22 17.0346 22C16.7694 22 16.515 21.8946 16.3275 21.7071L12.2929 17.6725C11.9024 17.282 11.9024 16.6488 12.2929 16.2583C12.6834 15.8678 13.3166 15.8678 13.7071 16.2583L16.0293 18.5806L15.9956 3.00216C15.9944 2.44988 16.4412 2.0012 16.9935 2Z" fill="black"/>
<path fill-rule="evenodd" clip-rule="evenodd" d="M10 6C6.68629 6 4 8.68629 4 12C4 15.3137 6.68629 18 10 18C10.292 18 10.5786 17.9792 10.8584 17.9392C11.4051 17.861 11.9117 18.2408 11.9899 18.7875C12.0681 19.3342 11.6883 19.8408 11.1416 19.919C10.7682 19.9724 10.387 20 10 20C5.58172 20 2 16.4183 2 12C2 7.58172 5.58172 4 10 4C11.6984 4 13.2759 4.53037 14.5721 5.4345C15.0251 5.75046 15.1361 6.37381 14.8202 6.82679C14.5042 7.27976 13.8809 7.39084 13.4279 7.07487C12.4564 6.39726 11.2761 6 10 6Z" fill="black"/>
<path fill-rule="evenodd" clip-rule="evenodd" d="M10 7.57147C10.5523 7.57147 11 8.01919 11 8.57147V12.5715C11 12.8367 10.8947 13.091 10.7071 13.2786L8.99284 14.9929C8.60232 15.3834 7.96915 15.3834 7.57863 14.9929C7.1881 14.6023 7.1881 13.9692 7.57863 13.5787L9.00002 12.1573V8.57147C9.00002 8.01919 9.44774 7.57147 10 7.57147Z" fill="black"/>
</svg>
