<svg width="24" height="24" viewBox="0 0 24 24" fill="none" xmlns="http://www.w3.org/2000/svg">
<path d="M19.5 3.5H17.25V2.75C17.25 2.55109 17.171 2.36032 17.0303 2.21967C16.8897 2.07902 16.6989 2 16.5 2C16.3011 2 16.1103 2.07902 15.9697 2.21967C15.829 2.36032 15.75 2.55109 15.75 2.75V3.5H8.25V2.75C8.25 2.55109 8.17098 2.36032 8.03033 2.21967C7.88968 2.07902 7.69891 2 7.5 2C7.30109 2 7.11032 2.07902 6.96967 2.21967C6.82902 2.36032 6.75 2.55109 6.75 2.75V3.5H4.5C4.10218 3.5 3.72064 3.65804 3.43934 3.93934C3.15804 4.22064 3 4.60218 3 5V20C3 20.3978 3.15804 20.7794 3.43934 21.0607C3.72064 21.342 4.10218 21.5 4.5 21.5H19.5C19.8978 21.5 20.2794 21.342 20.5607 21.0607C20.842 20.7794 21 20.3978 21 20V5C21 4.60218 20.842 4.22064 20.5607 3.93934C20.2794 3.65804 19.8978 3.5 19.5 3.5ZM10.5 17.75C10.5 17.9489 10.421 18.1397 10.2803 18.2803C10.1397 18.421 9.94891 18.5 9.75 18.5C9.55109 18.5 9.36032 18.421 9.21967 18.2803C9.07902 18.1397 9 17.9489 9 17.75V12.9631L8.58563 13.1713C8.4076 13.2603 8.2015 13.2749 8.01268 13.212C7.82385 13.149 7.66776 13.0137 7.57875 12.8356C7.48974 12.6576 7.47509 12.4515 7.53803 12.2627C7.60097 12.0739 7.73635 11.9178 7.91437 11.8287L9.41437 11.0787C9.52876 11.0215 9.65589 10.9945 9.78367 11.0002C9.91145 11.006 10.0356 11.0443 10.1444 11.1116C10.2532 11.1788 10.343 11.2728 10.4052 11.3845C10.4675 11.4963 10.5001 11.6221 10.5 11.75V17.75ZM15.75 17C15.9489 17 16.1397 17.079 16.2803 17.2197C16.421 17.3603 16.5 17.5511 16.5 17.75C16.5 17.9489 16.421 18.1397 16.2803 18.2803C16.1397 18.421 15.9489 18.5 15.75 18.5H12.75C12.6107 18.5 12.4742 18.4612 12.3557 18.388C12.2372 18.3148 12.1415 18.21 12.0792 18.0854C12.0169 17.9608 11.9905 17.8214 12.003 17.6826C12.0155 17.5439 12.0664 17.4114 12.15 17.3L14.8481 13.7028C14.9095 13.6211 14.9535 13.5277 14.9775 13.4284C15.0015 13.3291 15.0049 13.2259 14.9876 13.1252C14.9703 13.0245 14.9325 12.9284 14.8767 12.8428C14.8209 12.7572 14.7482 12.6839 14.6631 12.6274C14.5779 12.5709 14.4821 12.5324 14.3816 12.5143C14.281 12.4961 14.1778 12.4987 14.0783 12.5219C13.9788 12.5451 13.885 12.5884 13.8028 12.6491C13.7206 12.7098 13.6517 12.7867 13.6003 12.875C13.5525 12.963 13.4876 13.0406 13.4093 13.1031C13.3311 13.1656 13.2411 13.2118 13.1447 13.239C13.0483 13.2661 12.9474 13.2737 12.8481 13.2613C12.7487 13.2489 12.6528 13.2166 12.5661 13.1665C12.4794 13.1165 12.4035 13.0495 12.3431 12.9696C12.2827 12.8898 12.2389 12.7986 12.2142 12.7015C12.1896 12.6044 12.1847 12.5034 12.1997 12.4044C12.2148 12.3054 12.2495 12.2104 12.3019 12.125C12.5496 11.6963 12.9319 11.3612 13.3894 11.1718C13.8469 10.9824 14.3541 10.9493 14.8324 11.0774C15.3107 11.2056 15.7333 11.488 16.0348 11.8808C16.3363 12.2736 16.4998 12.7548 16.5 13.25C16.5016 13.7391 16.3421 14.2152 16.0463 14.6047L14.25 17H15.75ZM4.5 8V5H6.75V5.75C6.75 5.94891 6.82902 6.13968 6.96967 6.28033C7.11032 6.42098 7.30109 6.5 7.5 6.5C7.69891 6.5 7.88968 6.42098 8.03033 6.28033C8.17098 6.13968 8.25 5.94891 8.25 5.75V5H15.75V5.75C15.75 5.94891 15.829 6.13968 15.9697 6.28033C16.1103 6.42098 16.3011 6.5 16.5 6.5C16.6989 6.5 16.8897 6.42098 17.0303 6.28033C17.171 6.13968 17.25 5.94891 17.25 5.75V5H19.5V8H4.5Z" fill="#C4C4C4"/>
</svg>
