<svg width="24" height="24" viewBox="0 0 24 24" fill="none" xmlns="http://www.w3.org/2000/svg">
<path fill-rule="evenodd" clip-rule="evenodd" d="M16.9935 22C17.5458 22.0012 17.9944 21.5544 17.9956 21.0022L18.0294 5.409L20.239 7.61865C20.6295 8.00917 21.2627 8.00917 21.6532 7.61865C22.0437 7.22813 22.0437 6.59496 21.6532 6.20444L17.7417 2.29289C17.5541 2.10535 17.2998 2 17.0346 2C16.7694 2 16.515 2.10535 16.3275 2.29289L12.2929 6.32746C11.9024 6.71799 11.9024 7.35115 12.2929 7.74168C12.6834 8.1322 13.3166 8.1322 13.7071 7.74168L16.0293 5.41945L15.9956 20.9978C15.9944 21.5501 16.4412 21.9988 16.9935 22Z" fill="black"/>
<path fill-rule="evenodd" clip-rule="evenodd" d="M10 18C6.68629 18 4 15.3137 4 12C4 8.68629 6.68629 6 10 6C10.292 6 10.5786 6.02078 10.8584 6.06081C11.4051 6.13902 11.9117 5.75921 11.9899 5.21249C12.0681 4.66577 11.6883 4.15917 11.1416 4.08096C10.7682 4.02756 10.387 4 10 4C5.58172 4 2 7.58172 2 12C2 16.4183 5.58172 20 10 20C11.6984 20 13.2759 19.4696 14.5721 18.5655C15.0251 18.2495 15.1361 17.6262 14.8202 17.1732C14.5042 16.7202 13.8809 16.6092 13.4279 16.9251C12.4564 17.6027 11.2761 18 10 18Z" fill="black"/>
<path fill-rule="evenodd" clip-rule="evenodd" d="M9.98058 7.57147C10.5329 7.57147 10.9806 8.01919 10.9806 8.57147V12.5715C10.9806 12.8367 10.8752 13.091 10.6877 13.2786L8.9734 14.9929C8.58288 15.3834 7.94971 15.3834 7.55919 14.9929C7.16867 14.6023 7.16867 13.9692 7.55919 13.5787L8.98058 12.1573V8.57147C8.98058 8.01919 9.4283 7.57147 9.98058 7.57147Z" fill="black"/>
</svg>
