<svg width="24" height="24" viewBox="0 0 24 24" fill="none" xmlns="http://www.w3.org/2000/svg">
<path fill-rule="evenodd" clip-rule="evenodd" d="M1 12C1 5.92487 5.92487 1 12 1C18.0751 1 23 5.92487 23 12C23 18.0751 18.0751 23 12 23C5.92487 23 1 18.0751 1 12ZM15.5355 8.46454C15.926 8.85506 15.926 9.48823 15.5355 9.87875L13.4142 12L15.5356 14.1214C15.9261 14.5119 15.9261 15.1451 15.5356 15.5356C15.1451 15.9261 14.5119 15.9261 14.1214 15.5356L12 13.4142L9.87863 15.5356C9.48811 15.9261 8.85494 15.9261 8.46442 15.5356C8.07389 15.1451 8.07389 14.5119 8.46442 14.1214L10.5858 12L8.46454 9.87875C8.07402 9.48823 8.07402 8.85506 8.46454 8.46454C8.85506 8.07402 9.48823 8.07402 9.87875 8.46454L12 10.5858L14.1213 8.46454C14.5118 8.07402 15.145 8.07402 15.5355 8.46454Z" fill="#C4C4C4"/>
</svg>
