<svg width="24" height="24" viewBox="0 0 24 24" fill="none" xmlns="http://www.w3.org/2000/svg">
<rect x="1" y="3" width="7" height="4.5" rx="2.25" fill="#C4C4C4"/>
<path d="M1 4.5H20C21.6569 4.5 23 5.84315 23 7.5V7.5H1V4.5Z" fill="#C4C4C4"/>
<path fill-rule="evenodd" clip-rule="evenodd" d="M23 8.5H1V17C1 19.2091 2.79086 21 5 21H19C21.2091 21 23 19.2091 23 17V8.5ZM16.6952 12.7189C17.0922 12.3349 17.1028 11.7019 16.7189 11.3048C16.3349 10.9078 15.7019 10.8972 15.3048 11.2811L11.8636 14.6089L9.69516 12.5119C9.29815 12.128 8.66507 12.1386 8.28114 12.5356C7.89722 12.9326 7.90783 13.5657 8.30484 13.9496L11.1685 16.7189C11.5561 17.0937 12.1712 17.0937 12.5588 16.7189L16.6952 12.7189Z" fill="#C4C4C4"/>
</svg>
