<svg width="24" height="24" viewBox="0 0 24 24" fill="none" xmlns="http://www.w3.org/2000/svg">
<path fill-rule="evenodd" clip-rule="evenodd" d="M17.4935 2C18.0458 1.99881 18.4944 2.44555 18.4956 2.99784L18.5294 18.591L20.739 16.3814C21.1295 15.9908 21.7627 15.9908 22.1532 16.3814C22.5437 16.7719 22.5437 17.405 22.1532 17.7956L18.2417 21.7071C18.0541 21.8946 17.7998 22 17.5346 22C17.2694 22 17.015 21.8946 16.8275 21.7071L12.7929 17.6725C12.4024 17.282 12.4024 16.6488 12.7929 16.2583C13.1834 15.8678 13.8166 15.8678 14.2071 16.2583L16.5293 18.5806L16.4956 3.00216C16.4944 2.44988 16.9412 2.0012 17.4935 2Z" fill="black"/>
<path fill-rule="evenodd" clip-rule="evenodd" d="M2.5 6.5C2.5 5.39543 3.39543 4.5 4.5 4.5H8.54007C9.12392 4.5 9.67861 4.75513 10.0586 5.19842L12.4599 8H14.5C15.0523 8 15.5 8.44772 15.5 9C15.5 9.55228 15.0523 10 14.5 10H4.5V17.5H11C11.5523 17.5 12 17.9477 12 18.5C12 19.0523 11.5523 19.5 11 19.5H4.5C3.39543 19.5 2.5 18.6046 2.5 17.5V6.5ZM4.5 8H9.82578L8.54007 6.5H4.5V8Z" fill="black"/>
</svg>
