<svg width="24" height="24" viewBox="0 0 24 24" fill="none" xmlns="http://www.w3.org/2000/svg">
<path fill-rule="evenodd" clip-rule="evenodd" d="M17.4526 21.5C16.9004 21.5012 16.4517 21.0544 16.4505 20.5022L16.4167 4.909L14.2071 7.11865C13.8166 7.50917 13.1834 7.50917 12.7929 7.11865C12.4024 6.72812 12.4024 6.09496 12.7929 5.70444L16.7044 1.79289C16.892 1.60535 17.1463 1.5 17.4115 1.5C17.6768 1.5 17.9311 1.60535 18.1186 1.79289L22.1532 5.82746C22.5437 6.21799 22.5437 6.85115 22.1532 7.24168C21.7627 7.6322 21.1295 7.6322 20.739 7.24168L18.4168 4.91945L18.4505 20.4978C18.4517 21.0501 18.0049 21.4988 17.4526 21.5Z" fill="black"/>
<path fill-rule="evenodd" clip-rule="evenodd" d="M2.5 7C2.5 5.89543 3.39543 5 4.5 5H8.54007C9.12392 5 9.67861 5.25513 10.0586 5.69842L12.4599 8.5H14.5C15.0523 8.5 15.5 8.94772 15.5 9.5C15.5 10.0523 15.0523 10.5 14.5 10.5H4.5V18H14.5C15.0523 18 15.5 18.4477 15.5 19C15.5 19.5523 15.0523 20 14.5 20H4.5C3.39543 20 2.5 19.1046 2.5 18V7ZM4.5 8.5H9.82578L8.54007 7H4.5V8.5Z" fill="black"/>
</svg>
