<svg width="24" height="24" viewBox="0 0 24 24" fill="none" xmlns="http://www.w3.org/2000/svg">
<g clip-path="url(#clip0_1147_61)">
<path fill-rule="evenodd" clip-rule="evenodd" d="M12 1C18.0753 1 23 6.04892 23 12.2782C23 17.2601 19.8518 21.4864 15.4837 22.9791C14.926 23.0902 14.728 22.7379 14.728 22.4376C14.728 22.0658 14.7412 20.8515 14.7412 19.3423C14.7412 18.2907 14.3892 17.6043 13.9943 17.2545C16.444 16.9751 19.018 16.0214 19.018 11.6896C19.018 10.4576 18.5912 9.4522 17.885 8.6624C17.9994 8.3775 18.3767 7.23035 17.7772 5.67715C17.7772 5.67715 16.8554 5.37495 14.7555 6.83355C13.8766 6.58385 12.935 6.45821 12 6.45381C11.065 6.45821 10.1245 6.58385 9.2467 6.83355C7.1446 5.37495 6.2206 5.67715 6.2206 5.67715C5.6233 7.23035 6.0006 8.3775 6.1139 8.6624C5.411 9.4522 4.9809 10.4576 4.9809 11.6896C4.9809 16.0104 7.5494 16.9788 9.9925 17.2637C9.6779 17.5453 9.393 18.042 9.294 18.7713C8.667 19.0595 7.0742 19.5583 6.093 17.8346C6.093 17.8346 5.5111 16.751 4.4067 16.6718C4.4067 16.6718 3.3342 16.6575 4.3319 17.3571C4.3319 17.3571 5.0524 17.7036 5.5529 19.0071C5.5529 19.0071 6.1986 21.0201 9.2588 20.3381C9.2643 21.2808 9.2742 22.1692 9.2742 22.4376C9.2742 22.7357 9.0718 23.0846 8.5229 22.9801C4.1515 21.4896 1 17.2612 1 12.2782C1 6.04892 5.9258 1 12 1Z" fill="black"/>
</g>
<defs>
<clipPath id="clip0_1147_61">
<rect width="22" height="22" fill="white" transform="translate(1 1)"/>
</clipPath>
</defs>
</svg>
