<svg width="24" height="24" viewBox="0 0 24 24" fill="none" xmlns="http://www.w3.org/2000/svg">
<path fill-rule="evenodd" clip-rule="evenodd" d="M16.9526 22C16.4004 22.0012 15.9517 21.5544 15.9505 21.0022L15.9167 5.409L13.7071 7.61865C13.3166 8.00918 12.6834 8.00918 12.2929 7.61865C11.9024 7.22813 11.9024 6.59496 12.2929 6.20444L16.2044 2.29289C16.392 2.10535 16.6463 2 16.9115 2C17.1768 2 17.4311 2.10535 17.6186 2.29289L21.6532 6.32746C22.0437 6.71799 22.0437 7.35115 21.6532 7.74168C21.2627 8.1322 20.6295 8.1322 20.239 7.74168L17.9168 5.41945L17.9505 20.9978C17.9517 21.5501 17.5049 21.9988 16.9526 22Z" fill="black"/>
<path fill-rule="evenodd" clip-rule="evenodd" d="M6.5 5C5.11929 5 4 6.11929 4 7.5C4 8.88071 5.11929 10 6.5 10C7.88071 10 9 8.88071 9 7.5C9 6.11929 7.88071 5 6.5 5ZM2 7.5C2 5.01472 4.01472 3 6.5 3C8.98528 3 11 5.01472 11 7.5C11 9.98528 8.98528 12 6.5 12C4.01472 12 2 9.98528 2 7.5Z" fill="black"/>
<path fill-rule="evenodd" clip-rule="evenodd" d="M6.4641 13C6.82137 13 7.15149 13.1906 7.33013 13.5L10.7942 19.5C10.9729 19.8094 10.9729 20.1906 10.7942 20.5C10.6156 20.8094 10.2855 21 9.9282 21H3C2.64273 21 2.31261 20.8094 2.13397 20.5C1.95534 20.1906 1.95534 19.8094 2.13397 19.5L5.59808 13.5C5.77671 13.1906 6.10684 13 6.4641 13ZM4.73205 19H8.19615L6.4641 16L4.73205 19Z" fill="black"/>
</svg>
