<svg width="24" height="24" viewBox="0 0 24 24" fill="none" xmlns="http://www.w3.org/2000/svg">
<path fill-rule="evenodd" clip-rule="evenodd" d="M16.9526 2C16.4004 1.99881 15.9517 2.44555 15.9505 2.99784L15.9167 18.591L13.7071 16.3813C13.3166 15.9908 12.6834 15.9908 12.2929 16.3813C11.9024 16.7719 11.9024 17.405 12.2929 17.7956L16.2044 21.7071C16.392 21.8946 16.6463 22 16.9115 22C17.1768 22 17.4311 21.8946 17.6186 21.7071L21.6532 17.6725C22.0437 17.282 22.0437 16.6488 21.6532 16.2583C21.2627 15.8678 20.6295 15.8678 20.239 16.2583L17.9168 18.5806L17.9505 3.00216C17.9517 2.44988 17.5049 2.0012 16.9526 2Z" fill="black"/>
<path fill-rule="evenodd" clip-rule="evenodd" d="M6.5 5C5.11929 5 4 6.11929 4 7.5C4 8.88071 5.11929 10 6.5 10C7.88071 10 9 8.88071 9 7.5C9 6.11929 7.88071 5 6.5 5ZM2 7.5C2 5.01472 4.01472 3 6.5 3C8.98528 3 11 5.01472 11 7.5C11 9.98528 8.98528 12 6.5 12C4.01472 12 2 9.98528 2 7.5Z" fill="black"/>
<path fill-rule="evenodd" clip-rule="evenodd" d="M6.4641 13C6.82137 13 7.15149 13.1906 7.33013 13.5L10.7942 19.5C10.9729 19.8094 10.9729 20.1906 10.7942 20.5C10.6156 20.8094 10.2855 21 9.9282 21H3C2.64273 21 2.31261 20.8094 2.13397 20.5C1.95534 20.1906 1.95534 19.8094 2.13397 19.5L5.59808 13.5C5.77671 13.1906 6.10684 13 6.4641 13ZM4.73205 19H8.19615L6.4641 16L4.73205 19Z" fill="black"/>
</svg>
