<svg width="24" height="24" viewBox="0 0 24 24" fill="none" xmlns="http://www.w3.org/2000/svg">
<path d="M12.7279 4.5C12.4058 5.12489 12.2231 5.83349 12.223 6.58496C12.2232 9.10191 14.2637 11.1425 16.7806 11.1426C17.3671 11.1425 17.9278 11.03 18.4427 10.8281L21.0726 13.458C21.2823 13.6675 21.5308 13.8133 21.7943 13.9004V19C21.7943 20.1045 20.8988 20.9999 19.7943 21H2.79431C1.68974 21 0.794312 20.1046 0.794312 19V6.5C0.794378 5.39549 1.68978 4.5 2.79431 4.5H12.7279ZM12.5726 12.6631C12.3158 11.9305 11.359 11.7574 10.8617 12.3535L8.22791 15.5098C7.80936 16.0113 7.03043 15.9834 6.6488 15.4531L5.43201 13.7627C4.96599 13.1153 3.96675 13.2479 3.68494 13.9941L2.30505 17.6465C2.05806 18.3005 2.54149 18.9999 3.2406 19H13.3842C14.0731 18.9999 14.5554 18.3192 14.3275 17.6689L12.5726 12.6631ZM5.79431 7C4.68978 7 3.79438 7.89549 3.79431 9C3.79431 10.1046 4.68974 11 5.79431 11C6.89882 10.9999 7.79431 10.1045 7.79431 9C7.79425 7.89553 6.89878 7.00007 5.79431 7ZM21.0258 4.92578C21.4931 5.29186 21.7943 5.86036 21.7943 6.5V8.98145L21.0336 8.22168C21.2292 7.71368 21.3382 7.16188 21.3383 6.58496C21.3382 5.9995 21.2269 5.43999 21.0258 4.92578Z" fill="#C4C4C4"/>
<path d="M16.8604 2.99994C18.8295 3.00015 20.4258 4.59715 20.4258 6.56635C20.4257 7.18712 20.2653 7.76994 19.9863 8.27826L22.9131 11.205C23.3034 11.5956 23.3035 12.2286 22.9131 12.6191C22.5226 13.0095 21.8896 13.0094 21.499 12.6191L18.5723 9.69232C18.0639 9.97132 17.4811 10.1317 16.8604 10.1318C14.8912 10.1318 13.2942 8.53547 13.2939 6.56635C13.2939 4.59702 14.891 2.99994 16.8604 2.99994ZM16.9326 5.13861C16.1042 5.13861 15.4326 5.80631 15.4326 6.62982C15.4328 7.45315 16.1043 8.12006 16.9326 8.12006C17.7608 8.11994 18.4324 7.45308 18.4326 6.62982C18.4326 5.80638 17.7609 5.13873 16.9326 5.13861Z" fill="#C4C4C4"/>
</svg>
