<svg width="24" height="24" viewBox="0 0 24 24" fill="none" xmlns="http://www.w3.org/2000/svg">
<path fill-rule="evenodd" clip-rule="evenodd" d="M1 6.2C1 5.0799 1 4.51984 1.21799 4.09202C1.40973 3.71569 1.71569 3.40973 2.09202 3.21799C2.51984 3 3.0799 3 4.2 3H19.8C20.9201 3 21.4802 3 21.908 3.21799C22.2843 3.40973 22.5903 3.71569 22.782 4.09202C23 4.51984 23 5.0799 23 6.2V16.7763L20.0246 13.5957C19.2659 12.7847 17.9918 12.7471 17.1866 13.512L13.6666 16.856L9.05793 11.6713C8.29342 10.8112 6.9626 10.7721 6.1489 11.5858L1 16.7347V6.2ZM18.5641 14.962L22.8983 19.5952C22.8689 19.7093 22.8309 19.812 22.782 19.908C22.5903 20.2843 22.2843 20.5903 21.908 20.782C21.4802 21 20.9201 21 19.8 21H4.2C3.0799 21 2.51984 21 2.09202 20.782C1.71569 20.5903 1.40973 20.2843 1.21799 19.908C1.154 19.7824 1.1088 19.6454 1.07686 19.4863L7.56311 13L12.1718 18.1848C12.9229 19.0297 14.2245 19.0847 15.0441 18.306L18.5641 14.962ZM16.5 10C17.8807 10 19 8.88071 19 7.5C19 6.11929 17.8807 5 16.5 5C15.1193 5 14 6.11929 14 7.5C14 8.88071 15.1193 10 16.5 10Z" fill="#C4C4C4"/>
</svg>
