<svg width="23" height="19" viewBox="0 0 23 19" fill="none" xmlns="http://www.w3.org/2000/svg">
<path d="M12.3311 2.41992C12.0089 3.04481 11.8262 3.75341 11.8262 4.50488C11.8264 7.02183 13.8668 9.06246 16.3838 9.0625C16.9703 9.06241 17.531 8.94991 18.0459 8.74805L20.6758 11.3779C20.8854 11.5874 21.1339 11.7332 21.3975 11.8203V16.9199C21.3975 18.0245 20.502 18.9199 19.3975 18.9199H2.39746C1.29289 18.9199 0.397461 18.0245 0.397461 16.9199V4.41992C0.397527 3.31541 1.29293 2.41992 2.39746 2.41992H12.3311ZM12.1758 10.583C11.9189 9.85038 10.9622 9.67727 10.4648 10.2734L7.83105 13.4297C7.41251 13.9313 6.63358 13.9033 6.25195 13.373L5.03516 11.6826C4.56914 11.0352 3.5699 11.1678 3.28809 11.9141L1.9082 15.5664C1.66121 16.2205 2.14464 16.9198 2.84375 16.9199H12.9873C13.6763 16.9199 14.1586 16.2391 13.9307 15.5889L12.1758 10.583ZM5.39746 4.91992C4.29293 4.91992 3.39753 5.81541 3.39746 6.91992C3.39746 8.02449 4.29289 8.91992 5.39746 8.91992C6.50197 8.91986 7.39746 8.02445 7.39746 6.91992C7.39739 5.81545 6.50193 4.91999 5.39746 4.91992ZM20.6289 2.8457C21.0962 3.21178 21.3974 3.78028 21.3975 4.41992V6.90137L20.6367 6.1416C20.8323 5.6336 20.9414 5.0818 20.9414 4.50488C20.9414 3.91943 20.8301 3.35991 20.6289 2.8457Z" fill="#C4C4C4"/>
<path d="M16.4635 0.919861C18.4327 0.920067 20.0289 2.51707 20.0289 4.48627C20.0289 5.10704 19.8685 5.68986 19.5895 6.19818L22.5162 9.12494C22.9065 9.51548 22.9067 10.1485 22.5162 10.539C22.1258 10.9294 21.4927 10.9293 21.1022 10.539L18.1754 7.61224C17.6671 7.89124 17.0843 8.05163 16.4635 8.0517C14.4943 8.0517 12.8973 6.45539 12.8971 4.48627C12.8971 2.51694 14.4942 0.919861 16.4635 0.919861ZM16.5358 3.05853C15.7073 3.05853 15.0358 3.72623 15.0358 4.54974C15.036 5.37307 15.7075 6.03998 16.5358 6.03998C17.364 6.03986 18.0356 5.373 18.0358 4.54974C18.0358 3.72631 17.3641 3.05865 16.5358 3.05853Z" fill="#C4C4C4"/>
</svg>
