<svg width="24" height="24" viewBox="0 0 24 24" fill="none" xmlns="http://www.w3.org/2000/svg">
<path fill-rule="evenodd" clip-rule="evenodd" d="M6 3C6 2.44772 6.44772 2 7 2H13C13.5523 2 14 2.44772 14 3V5C14 5.55228 13.5523 6 13 6H7C6.44772 6 6 5.55228 6 5V3ZM18 22C20.2091 22 22 20.2091 22 18C22 15.7909 20.2091 14 18 14C15.7909 14 14 15.7909 14 18C14 20.2091 15.7909 22 18 22ZM18.1974 16C18.1974 15.7239 17.9735 15.5 17.6974 15.5C17.4212 15.5 17.1974 15.7239 17.1974 16V18.5C17.1974 18.7294 17.3535 18.9294 17.5761 18.9851L19.5761 19.4851C19.844 19.552 20.1155 19.3892 20.1825 19.1213C20.2494 18.8534 20.0866 18.5819 19.8187 18.5149L18.1974 18.1096V16ZM4 4H5.25V5C5.25 5.9665 6.0335 6.75 7 6.75H13C13.9665 6.75 14.75 5.9665 14.75 5V4H16C17.1046 4 18 4.89543 18 6V13C15.2386 13 13 15.2386 13 18C13 19.6356 13.7853 21.0878 14.9995 22H4C2.89543 22 2 21.1046 2 20V6C2 4.89543 2.89543 4 4 4ZM4 10C4 9.44772 4.44772 9 5 9H15C15.5523 9 16 9.44772 16 10C16 10.5523 15.5523 11 15 11H5C4.44772 11 4 10.5523 4 10ZM5 13C4.44772 13 4 13.4477 4 14C4 14.5523 4.44772 15 5 15H12C12.5523 15 13 14.5523 13 14C13 13.4477 12.5523 13 12 13H5ZM4 18C4 17.4477 4.44772 17 5 17H11C11.5523 17 12 17.4477 12 18C12 18.5523 11.5523 19 11 19H5C4.44772 19 4 18.5523 4 18Z" fill="#C4C4C4"/>
</svg>
