<svg width="24" height="24" viewBox="0 0 24 24" fill="none" xmlns="http://www.w3.org/2000/svg">
<path fill-rule="evenodd" clip-rule="evenodd" d="M6 3C6 2.44772 6.44772 2 7 2H13C13.5523 2 14 2.44772 14 3V5C14 5.55228 13.5523 6 13 6H7C6.44772 6 6 5.55228 6 5V3ZM18 9.28988V6C18 4.89543 17.1046 4 16 4H14.75V5C14.75 5.9665 13.9665 6.75 13 6.75H7C6.0335 6.75 5.25 5.9665 5.25 5V4H4C2.89543 4 2 4.89543 2 6V20C2 21.1046 2.89543 22 4 22H12.3924C11.2167 21.2916 10.2662 20.2473 9.67363 19H5C4.44772 19 4 18.5523 4 18C4 17.4477 4.44772 17 5 17H9.07089C9.02417 16.6734 9 16.3395 9 16C9 15.6605 9.02417 15.3266 9.07089 15H5C4.44772 15 4 14.5523 4 14C4 13.4477 4.44772 13 5 13H9.67363C10.0297 12.2504 10.5151 11.5741 11.101 11H5C4.44772 11 4 10.5523 4 10C4 9.44772 4.44772 9 5 9H15C15.0942 9 15.1855 9.01304 15.2719 9.03741C15.5112 9.01268 15.7541 9 16 9C16.695 9 17.3663 9.10128 18 9.28988Z" fill="#C4C4C4"/>
<path fill-rule="evenodd" clip-rule="evenodd" d="M16 22C19.3137 22 22 19.3137 22 16C22 12.6863 19.3137 10 16 10C12.6863 10 10 12.6863 10 16C10 19.3137 12.6863 22 16 22ZM18.0529 17.8292C18.2921 17.9673 18.5979 17.8853 18.7359 17.6462C18.874 17.407 18.7921 17.1012 18.5529 16.9632L16.5247 15.7922L16.5247 12.5C16.5247 12.2239 16.3009 12 16.0247 12C15.7486 12 15.5247 12.2239 15.5247 12.5V16.0876C15.5247 16.3 15.6572 16.4815 15.844 16.5539L18.0529 17.8292Z" fill="#C4C4C4"/>
</svg>
