<svg width="24" height="24" viewBox="0 0 24 24" fill="none" xmlns="http://www.w3.org/2000/svg">
<path fill-rule="evenodd" clip-rule="evenodd" d="M2.50002 14C2.50002 13.4477 2.94773 13 3.50002 13H9.36856C9.76445 13 10.1231 13.2335 10.2832 13.5956C10.4432 13.9577 10.3747 14.3801 10.1082 14.673L5.26174 20H10C10.5523 20 11 20.4477 11 21C11 21.5523 10.5523 22 10 22H3.00002C2.60413 22 2.24552 21.7665 2.08543 21.4044C1.92534 21.0423 1.99392 20.6199 2.26034 20.327L7.10684 15H3.50002C2.94773 15 2.50002 14.5523 2.50002 14Z" fill="black"/>
<path fill-rule="evenodd" clip-rule="evenodd" d="M6.50025 2C6.89755 2 7.25717 2.23519 7.41641 2.59918L10.9164 10.5992C11.1378 11.1052 10.9071 11.6948 10.4011 11.9162C9.89509 12.1375 9.30546 11.9068 9.0841 11.4008L8.07351 9.09091H4.927L3.91641 11.4008C3.69504 11.9068 3.10541 12.1375 2.59943 11.9162C2.09345 11.6948 1.86273 11.1052 2.0841 10.5992L5.5841 2.59918C5.74334 2.23519 6.10295 2 6.50025 2ZM5.802 7.09091H7.19851L6.50025 5.49489L5.802 7.09091Z" fill="black"/>
<path fill-rule="evenodd" clip-rule="evenodd" d="M16.9527 22C16.4004 22.0012 15.9517 21.5544 15.9505 21.0022L15.9168 5.409L13.7072 7.61865C13.3166 8.00917 12.6835 8.00917 12.2929 7.61865C11.9024 7.22812 11.9024 6.59496 12.2929 6.20443L16.2045 2.29289C16.392 2.10535 16.6464 2 16.9116 2C17.1768 2 17.4312 2.10535 17.6187 2.29289L21.6533 6.32746C22.0438 6.71799 22.0438 7.35115 21.6533 7.74168C21.2628 8.1322 20.6296 8.1322 20.2391 7.74168L17.9168 5.41945L17.9505 20.9978C17.9517 21.5501 17.505 21.9988 16.9527 22Z" fill="black"/>
</svg>
