<svg width="25" height="24" viewBox="0 0 25 24" fill="none" xmlns="http://www.w3.org/2000/svg">
<path d="M7.48706 1C7.48706 2.10457 6.59163 3 5.48706 3H4.44214C3.88985 3 3.44214 3.44772 3.44214 4V20C3.44214 20.5523 3.88985 21 4.44214 21H5.67163C6.67426 21 7.48706 21.8128 7.48706 22.8154V22.8154C7.48706 22.8776 7.49128 22.9393 7.49683 23H4.44214C2.78528 23 1.44214 21.6569 1.44214 20V4C1.44214 2.34315 2.78528 1 4.44214 1H7.48706V1Z" fill="#C4C4C4"/>
<path d="M20.4421 1C22.099 1 23.4421 2.34315 23.4421 4V20C23.4421 21.6569 22.099 23 20.4421 23H17.5232C17.5287 22.9393 17.533 22.8776 17.533 22.8154V22.8154C17.533 21.8128 18.3458 21 19.3484 21H20.4421C20.9944 21 21.4421 20.5523 21.4421 20V4C21.4421 3.44772 20.9944 3 20.4421 3H19.533C18.4284 3 17.533 2.10457 17.533 1V1H20.4421Z" fill="#C4C4C4"/>
<path d="M16.8627 4.93028L19.7173 9.38674L18.1873 10.5265L16.3801 7.60005L14.5934 10.5265L13.0532 9.40728L15.918 4.93028C16.0276 4.82076 16.1918 4.76599 16.4109 4.76599C16.6231 4.76599 16.7737 4.82076 16.8627 4.93028Z" fill="#C4C4C4"/>
<path d="M9.52083 19.3162H7.69306C7.6383 19.3162 7.61092 19.2888 7.61092 19.2341V18.0121C6.90582 17.7999 6.32395 17.3892 5.8653 16.7799C5.41349 16.1707 5.18759 15.4793 5.18759 14.7057V13.9151C5.18759 13.8535 5.21497 13.8227 5.26974 13.8227H7.18992C7.23099 13.8227 7.25153 13.8535 7.25153 13.9151V14.7057C7.25153 15.0754 7.38159 15.3971 7.64172 15.671C7.90185 15.9448 8.20648 16.0817 8.5556 16.0817C8.91842 16.0817 9.22305 15.9448 9.46949 15.671C9.71593 15.3971 9.83915 15.0925 9.83915 14.7571C9.83915 14.319 9.56532 13.9459 9.01768 13.6378C8.83285 13.5283 8.54191 13.3674 8.14487 13.1552C7.75467 12.943 7.39186 12.7479 7.05643 12.5699C6.39925 12.2003 5.92006 11.7279 5.61886 11.1529C5.31766 10.5779 5.16705 9.93438 5.16705 9.22244C5.16705 8.4352 5.39296 7.75065 5.84476 7.16877C6.30342 6.5869 6.87502 6.19328 7.55958 5.98792V4.76598C7.55958 4.71122 7.59038 4.68384 7.65199 4.68384H9.47975C9.54821 4.68384 9.58244 4.71122 9.58244 4.76598V6.00845C10.2533 6.21382 10.8078 6.61086 11.2459 7.19958C11.6909 7.7883 11.9133 8.46258 11.9133 9.22244V10.6292C11.9133 10.6703 11.8928 10.6908 11.8517 10.6908H9.92129C9.88022 10.6908 9.85968 10.6703 9.85968 10.6292L9.83915 9.22244C9.83915 8.81855 9.70908 8.49339 9.44895 8.24695C9.18882 8.00051 8.89104 7.87729 8.5556 7.87729C8.20648 7.87729 7.9087 8.01078 7.66226 8.27776C7.41582 8.54473 7.2926 8.85963 7.2926 9.22244C7.2926 9.57157 7.3679 9.86935 7.5185 10.1158C7.67595 10.3622 7.95662 10.6052 8.36051 10.8448L10.1061 11.8101C10.6811 12.1181 11.133 12.5049 11.4615 12.9704C11.797 13.429 11.9647 14.0075 11.9647 14.7057C11.9647 15.5067 11.7456 16.1981 11.3075 16.7799C10.8762 17.3618 10.3149 17.7657 9.62351 17.9916V19.2341C9.62351 19.2888 9.58928 19.3162 9.52083 19.3162Z" fill="#C4C4C4"/>
</svg>
