<svg width="24" height="24" viewBox="0 0 24 24" fill="none" xmlns="http://www.w3.org/2000/svg">
<path fill-rule="evenodd" clip-rule="evenodd" d="M12.3725 9.35754C11.9148 9.22024 11.4881 9.64697 11.6254 10.1046L13.8848 17.6358C14.0468 18.176 14.797 18.2145 15.0135 17.6937L15.9631 15.4095L19.9804 19.4268C20.4538 19.9002 21.2213 19.9002 21.6947 19.4268C22.1681 18.9534 22.1681 18.1859 21.6947 17.7125L17.6774 13.6952L19.9616 12.7456C20.4823 12.5291 20.4439 11.7789 19.9037 11.6169L12.3725 9.35754Z" fill="#C4C4C4"/>
<path fill-rule="evenodd" clip-rule="evenodd" d="M2 4C2 2.89543 2.89543 2 4 2H16C17.1046 2 18 2.89543 18 4V10.0018L12.6599 8.39974C11.4394 8.0336 10.3015 9.17153 10.6676 10.392L12.927 17.9232C13.3591 19.3636 15.3596 19.4663 15.9369 18.0776L16.3128 17.1734L18 18.8606V20C18 21.1046 17.1046 22 16 22H4C2.89543 22 2 21.1046 2 20V4ZM15.5479 16.4084L15.5479 16.4084L15.0135 17.6937C14.9413 17.8675 14.8097 17.979 14.6603 18.0303C14.8097 17.979 14.9413 17.8675 15.0135 17.6937L15.5479 16.4084ZM5 5.5C4.44772 5.5 4 5.94772 4 6.5C4 7.05228 4.44772 7.5 5 7.5H15.5C16.0523 7.5 16.5 7.05228 16.5 6.5C16.5 5.94772 16.0523 5.5 15.5 5.5H5ZM5 11C4.44772 11 4 11.4477 4 12C4 12.5523 4.44772 13 5 13H9C9.55228 13 10 12.5523 10 12C10 11.4477 9.55228 11 9 11H5ZM4 17.5C4 16.9477 4.44772 16.5 5 16.5H11C11.5523 16.5 12 16.9477 12 17.5C12 18.0523 11.5523 18.5 11 18.5H5C4.44772 18.5 4 18.0523 4 17.5Z" fill="#C4C4C4"/>
</svg>
