<svg width="24" height="24" viewBox="0 0 24 24" fill="none" xmlns="http://www.w3.org/2000/svg">
<path fill-rule="evenodd" clip-rule="evenodd" d="M16.9526 2C16.4004 1.99881 15.9517 2.44555 15.9505 2.99784L15.9167 18.591L13.7071 16.3813C13.3166 15.9908 12.6834 15.9908 12.2929 16.3813C11.9024 16.7719 11.9024 17.405 12.2929 17.7956L16.2044 21.7071C16.392 21.8946 16.6463 22 16.9115 22C17.1768 22 17.4311 21.8946 17.6186 21.7071L21.6532 17.6725C22.0437 17.282 22.0437 16.6488 21.6532 16.2583C21.2627 15.8678 20.6295 15.8678 20.239 16.2583L17.9168 18.5806L17.9505 3.00216C17.9517 2.44988 17.5049 2.0012 16.9526 2Z" fill="black"/>
<path fill-rule="evenodd" clip-rule="evenodd" d="M14.0727 6.77339C13.7535 7.2241 13.1293 7.33072 12.6786 7.01154C11.7261 6.33699 10.5837 5.98294 9.41665 6.00063C8.2496 6.01832 7.11844 6.40682 6.1868 7.10993C5.25516 7.81304 4.57136 8.79431 4.23431 9.91176C3.99463 10.7064 3.93914 11.5406 4.06642 12.3522L9.16802 10.5567C9.474 10.449 9.81321 10.4964 10.0779 10.6839C10.3427 10.8714 10.5 11.1756 10.5 11.5L10.5 18C10.5 18.5523 10.0523 19 9.5 19C8.94772 19 8.5 18.5523 8.5 18L8.5 12.9121L3.70064 14.6012C3.45047 14.6892 3.17556 14.6743 2.9364 14.5597C2.69724 14.445 2.51342 14.2401 2.42537 13.9899C1.89698 12.4885 1.85991 10.858 2.31952 9.33422C2.77913 7.81042 3.71159 6.47233 4.982 5.51354C6.25242 4.55476 7.79491 4.02498 9.38634 4.00086C10.9778 3.97674 12.5356 4.45953 13.8345 5.37937C14.2852 5.69856 14.3918 6.32268 14.0727 6.77339Z" fill="black"/>
</svg>
