<svg width="24" height="24" viewBox="0 0 24 24" fill="none" xmlns="http://www.w3.org/2000/svg">
<path fill-rule="evenodd" clip-rule="evenodd" d="M16.9935 22C17.5458 22.0012 17.9944 21.5544 17.9956 21.0022L18.0294 5.409L20.239 7.61865C20.6295 8.00917 21.2627 8.00917 21.6532 7.61865C22.0437 7.22813 22.0437 6.59496 21.6532 6.20444L17.7417 2.29289C17.5541 2.10535 17.2998 2 17.0346 2C16.7694 2 16.515 2.10535 16.3275 2.29289L12.2929 6.32746C11.9024 6.71799 11.9024 7.35115 12.2929 7.74168C12.6834 8.1322 13.3166 8.1322 13.7071 7.74168L16.0293 5.41945L15.9956 20.9978C15.9944 21.5501 16.4412 21.9988 16.9935 22Z" fill="black"/>
<path fill-rule="evenodd" clip-rule="evenodd" d="M15.139 15.8833C15.5638 16.2362 15.6222 16.8667 15.2693 17.2915C14.8776 17.763 14.4274 18.1874 13.9268 18.5535C12.642 19.4929 11.0916 19.9993 9.50001 19.9993C8.94773 19.9993 8.50001 19.5515 8.50001 18.9993L8.50001 13.9113L3.70065 15.6004C3.45048 15.6885 3.17557 15.6736 2.93641 15.5589C2.69725 15.4443 2.51343 15.2393 2.42538 14.9891C1.89699 13.4878 1.85992 11.8573 2.31953 10.3335C2.77914 8.80967 3.7116 7.47159 4.98201 6.5128C6.25243 5.55401 7.79492 5.02424 9.38635 5.00012C9.93858 4.99175 10.393 5.43263 10.4014 5.98485C10.4098 6.53707 9.96888 6.99152 9.41666 6.99989C8.24961 7.01758 7.11845 7.40608 6.18681 8.10919C5.25517 8.8123 4.57137 9.79356 4.23432 10.911C3.99464 11.7057 3.93915 12.5399 4.06643 13.3515L9.16803 11.556C9.47401 11.4483 9.81322 11.4957 10.0779 11.6832C10.3427 11.8706 10.5 12.1749 10.5 12.4993L10.5 17.9076C11.3078 17.7582 12.0763 17.4289 12.7463 16.939C13.1135 16.6706 13.4436 16.3593 13.7308 16.0136C14.0837 15.5887 14.7142 15.5304 15.139 15.8833Z" fill="black"/>
</svg>
