<svg width="24" height="24" viewBox="0 0 24 24" fill="none" xmlns="http://www.w3.org/2000/svg">
<path fill-rule="evenodd" clip-rule="evenodd" d="M16.9935 2C17.5458 1.99881 17.9944 2.44555 17.9956 2.99784L18.0294 18.591L20.239 16.3814C20.6295 15.9908 21.2627 15.9908 21.6532 16.3814C22.0437 16.7719 22.0437 17.405 21.6532 17.7956L17.7417 21.7071C17.5541 21.8946 17.2998 22 17.0346 22C16.7694 22 16.515 21.8946 16.3275 21.7071L12.2929 17.6725C11.9024 17.282 11.9024 16.6488 12.2929 16.2583C12.6834 15.8678 13.3166 15.8678 13.7071 16.2583L16.0293 18.5806L15.9956 3.00216C15.9944 2.44988 16.4412 2.0012 16.9935 2Z" fill="black"/>
<path fill-rule="evenodd" clip-rule="evenodd" d="M6.95264 22C6.40035 22.0012 5.95167 21.5544 5.95048 21.0022L5.91675 5.409L3.7071 7.61865C3.31658 8.00917 2.68341 8.00917 2.29289 7.61865C1.90236 7.22812 1.90236 6.59496 2.29289 6.20444L6.20443 2.29289C6.39197 2.10535 6.64632 2 6.91154 2C7.17675 2 7.43111 2.10535 7.61864 2.29289L11.6532 6.32746C12.0437 6.71799 12.0437 7.35115 11.6532 7.74168C11.2627 8.1322 10.6295 8.1322 10.239 7.74168L7.91677 5.41945L7.95047 20.9978C7.95167 21.5501 7.50492 21.9988 6.95264 22Z" fill="black"/>
</svg>
