<svg width="24" height="24" viewBox="0 0 24 24" fill="none" xmlns="http://www.w3.org/2000/svg">
<rect x="4.5" y="20" width="15" height="2" rx="1" fill="#C4C4C4"/>
<rect x="11" y="22" width="7" height="2" rx="1" transform="rotate(-90 11 22)" fill="#C4C4C4"/>
<path fill-rule="evenodd" clip-rule="evenodd" d="M1 4C1 2.89543 1.89543 2 3 2H21C22.1046 2 23 2.89543 23 4V16C23 17.1046 22.1046 18 21 18H3C1.89543 18 1 17.1046 1 16V4ZM13.1571 7C13.5602 7 13.9166 7.2617 14.0373 7.64629L15.1546 11.2063C15.1591 11.2207 15.1725 11.2305 15.1875 11.2305C15.2025 11.2305 15.2159 11.2207 15.2204 11.2063L16.3377 7.64629C16.4584 7.2617 16.8148 7 17.2179 7C17.8555 7 18.3009 7.6314 18.0869 8.23206L16.7918 11.8684C16.5501 12.5469 15.9078 13 15.1875 13C14.4672 13 13.8249 12.5469 13.5832 11.8684L12.2881 8.23206C12.0741 7.6314 12.5195 7 13.1571 7ZM5.47425 7.65625C5.47425 8.01869 5.76806 8.3125 6.1305 8.3125H7.42156V12.1338C7.42156 12.6122 7.80936 13 8.28774 13C8.76611 13 9.15391 12.6122 9.15391 12.1338V8.3125H10.445C10.8074 8.3125 11.1012 8.01869 11.1012 7.65625C11.1012 7.29381 10.8074 7 10.445 7H6.1305C5.76806 7 5.47425 7.29381 5.47425 7.65625Z" fill="#C4C4C4"/>
</svg>
