<svg width="24" height="24" viewBox="0 0 24 24" fill="none" xmlns="http://www.w3.org/2000/svg">
<path fill-rule="evenodd" clip-rule="evenodd" d="M17.0476 2C17.5999 1.99881 18.0485 2.44553 18.0497 2.99778L18.0835 18.5901L20.293 16.3806C20.6835 15.99 21.3166 15.99 21.7071 16.3806C22.0976 16.7711 22.0976 17.4042 21.7071 17.7947L17.7958 21.706C17.6083 21.8935 17.3539 21.9989 17.0887 21.9989C16.8235 21.9989 16.5692 21.8935 16.3817 21.706L12.3473 17.6717C11.9568 17.2812 11.9568 16.648 12.3473 16.2575C12.7378 15.867 13.371 15.867 13.7615 16.2575L16.0836 18.5796L16.0499 3.00211C16.0487 2.44986 16.4954 2.0012 17.0476 2Z" fill="black"/>
<path fill-rule="evenodd" clip-rule="evenodd" d="M2 6.96565C2 5.86114 2.89538 4.96576 3.99989 4.96576H13.7494C14.3016 4.96576 14.7493 5.41345 14.7493 5.9657C14.7493 6.51796 14.3016 6.96565 13.7494 6.96565H3.99989V18.965H10.7495C11.3018 18.965 11.7495 19.4127 11.7495 19.9649C11.7495 20.5172 11.3018 20.9649 10.7495 20.9649H3.99989C2.89538 20.9649 2 20.0695 2 18.965V6.96565Z" fill="black"/>
<path fill-rule="evenodd" clip-rule="evenodd" d="M4.99985 15.4652C4.99985 14.913 5.44754 14.4653 5.99979 14.4653H9.74958C10.3018 14.4653 10.7495 14.913 10.7495 15.4652C10.7495 16.0175 10.3018 16.4652 9.74958 16.4652H5.99979C5.44754 16.4652 4.99985 16.0175 4.99985 15.4652Z" fill="black"/>
<path fill-rule="evenodd" clip-rule="evenodd" d="M4.99985 10.9655C4.99985 10.4132 5.44754 9.96552 5.99979 9.96552H13.4994C14.0516 9.96552 14.4993 10.4132 14.4993 10.9655C14.4993 11.5177 14.0516 11.9654 13.4994 11.9654H5.99979C5.44754 11.9654 4.99985 11.5177 4.99985 10.9655Z" fill="black"/>
</svg>
