<svg width="24" height="24" viewBox="0 0 24 24" fill="none" xmlns="http://www.w3.org/2000/svg">
<path fill-rule="evenodd" clip-rule="evenodd" d="M17.0068 21.9989C16.4546 22.0001 16.0059 21.5534 16.0047 21.0011L15.971 5.40882L13.7614 7.61834C13.3709 8.00885 12.7378 8.00885 12.3473 7.61834C11.9568 7.22784 11.9568 6.59471 12.3473 6.20421L16.2586 2.29288C16.4462 2.10535 16.7005 2 16.9657 2C17.2309 2 17.4852 2.10535 17.6728 2.29288L21.7071 6.32723C22.0976 6.71773 22.0976 7.35086 21.7071 7.74136C21.3166 8.13187 20.6835 8.13187 20.293 7.74136L17.9709 5.41926L18.0046 20.9968C18.0058 21.549 17.5591 21.9977 17.0068 21.9989Z" fill="black"/>
<path fill-rule="evenodd" clip-rule="evenodd" d="M4.99985 15.4992C4.99985 14.947 5.44754 14.4993 5.99979 14.4993H13.7494C14.3016 14.4993 14.7493 14.947 14.7493 15.4992C14.7493 16.0515 14.3016 16.4992 13.7494 16.4992H5.99979C5.44754 16.4992 4.99985 16.0515 4.99985 15.4992Z" fill="black"/>
<path fill-rule="evenodd" clip-rule="evenodd" d="M4.99985 10.9995C4.99985 10.4472 5.44754 9.99951 5.99979 9.99951H11.4995C12.0517 9.99951 12.4994 10.4472 12.4994 10.9995C12.4994 11.5517 12.0517 11.9994 11.4995 11.9994H5.99979C5.44754 11.9994 4.99985 11.5517 4.99985 10.9995Z" fill="black"/>
<path fill-rule="evenodd" clip-rule="evenodd" d="M2 6.96565C2 5.86114 2.89538 4.96576 3.99989 4.96576H9.8329C10.3852 4.96576 10.8328 5.41345 10.8328 5.9657C10.8328 6.51796 10.3852 6.96565 9.8329 6.96565H3.99989V18.965H13.9993C14.5516 18.965 14.9993 19.4127 14.9993 19.9649C14.9993 20.5172 14.5516 20.9649 13.9993 20.9649H3.99989C2.89538 20.9649 2 20.0695 2 18.965V6.96565Z" fill="black"/>
</svg>
