<svg width="24" height="24" viewBox="0 0 24 24" fill="none" xmlns="http://www.w3.org/2000/svg">
<path fill-rule="evenodd" clip-rule="evenodd" d="M2 9C2 7.34315 3.34315 6 5 6H15C16.6569 6 18 7.34315 18 9V19C18 20.6569 16.6569 22 15 22H5C3.34315 22 2 20.6569 2 19V9ZM5 8C4.44772 8 4 8.44772 4 9V19C4 19.5523 4.44772 20 5 20H15C15.5523 20 16 19.5523 16 19V9C16 8.44772 15.5523 8 15 8H5Z" fill="black"/>
<path fill-rule="evenodd" clip-rule="evenodd" d="M9 2C7.34315 2 6 3.34315 6 5V6H8V5C8 4.44772 8.44772 4 9 4H19C19.5523 4 20 4.44772 20 5V15C20 15.5523 19.5523 16 19 16H18V18H19C20.6569 18 22 16.6569 22 15V5C22 3.34315 20.6569 2 19 2H9Z" fill="black"/>
</svg>
