<svg width="24" height="24" viewBox="0 0 24 24" fill="none" xmlns="http://www.w3.org/2000/svg">
<path fill-rule="evenodd" clip-rule="evenodd" d="M4.22183 4.22182C6.21136 2.23232 8.96273 1 12 1C15.0373 1 17.7886 2.23231 19.7782 4.22182C21.7677 6.21135 23 8.96273 23 12C23 15.0373 21.7677 17.7886 19.7782 19.7782C17.7886 21.7677 15.0373 23 12 23C8.96273 23 6.21136 21.7677 4.22183 19.7782C2.23232 17.7886 1 15.0373 1 12C1 8.96273 2.23233 6.21135 4.22183 4.22182ZM12 5C12.5523 5 13 5.44772 13 6V14C13 14.5523 12.5523 15 12 15C11.4477 15 11 14.5523 11 14V6C11 5.44772 11.4477 5 12 5ZM12 18.5C12.6903 18.5 13.25 17.9403 13.25 17.25C13.25 16.5597 12.6903 16 12 16C11.3097 16 10.75 16.5597 10.75 17.25C10.75 17.9403 11.3097 18.5 12 18.5Z" fill="#C4C4C4"/>
</svg>
